<svg xmlns="http://www.w3.org/2000/svg" viewBox="0 0 64 64" role="img" aria-label="Meeting Brief Workshop">
  <rect width="64" height="64" rx="14" fill="#f43f5e"/>
  <circle cx="16" cy="18" r="6" fill="#fde68a"/>
  <circle cx="34" cy="14" r="6" fill="#ffffff"/>
  <circle cx="48" cy="22" r="6" fill="#fde68a"/>
  <path d="M6 32h20a4 4 0 0 1 4 4v8a4 4 0 0 1-4 4H10a4 4 0 0 1-4-4v-12Z" fill="#ffffff"/>
  <path d="M38 34h20a4 4 0 0 1 4 4v6a4 4 0 0 1-4 4H42a4 4 0 0 1-4-4v-10Z" fill="#fde68a"/>
  <path d="M16 28v4M34 24v8" stroke="#fecdd3" stroke-width="2" stroke-linecap="round"/>
</svg>
