<svg xmlns="http://www.w3.org/2000/svg" viewBox="0 0 64 64" role="img" aria-label="Flag Task">
  <rect width="64" height="64" rx="14" fill="#2563eb"/>
  <path d="M14 12h24a3 3 0 0 1 3 3v23a3 3 0 0 1-3 3H14a1 1 0 0 1-1-1V13a1 1 0 0 1 1-1Z" fill="#ffffff"/>
  <path d="M19 21h12M19 27h12M19 33h8" stroke="#94a3b8" stroke-width="2.6" stroke-linecap="round"/>
  <circle cx="44" cy="22" r="8" fill="#ffffff" opacity="0.18"/>
  <path d="M18 6v44" stroke="#ffffff" stroke-width="3.4" stroke-linecap="round"/>
  <path d="M18 8h24l-5 6 5 6H18V8Z" fill="#f59e0b" stroke="#ffffff" stroke-width="2" stroke-linejoin="round"/>
</svg>
