<svg xmlns="http://www.w3.org/2000/svg" viewBox="0 0 64 64">
  <defs>
    <linearGradient id="water" x1="0" y1="0" x2="0" y2="1">
      <stop offset="0" stop-color="#0a3a3a"/>
      <stop offset="1" stop-color="#041a1a"/>
    </linearGradient>
    <linearGradient id="coral" x1="0" y1="1" x2="0" y2="0">
      <stop offset="0" stop-color="#e05a6a"/>
      <stop offset="1" stop-color="#ff7a8a"/>
    </linearGradient>
  </defs>
  <rect width="64" height="64" rx="14" fill="url(#water)"/>
  <circle cx="47" cy="16" r="2.4" fill="#7fe6cf" opacity="0.9"/>
  <circle cx="16" cy="22" r="1.6" fill="#7fe6cf" opacity="0.6"/>
  <circle cx="51" cy="33" r="1.4" fill="#7fe6cf" opacity="0.55"/>
  <g fill="none" stroke="url(#coral)" stroke-width="4" stroke-linecap="round" stroke-linejoin="round">
    <path d="M32 54 V34"/>
    <path d="M32 44 C32 36 28 30 22 27"/>
    <path d="M22 27 C20 24 19 21 20 17"/>
    <path d="M22 27 C25 26 27 24 28 21"/>
    <path d="M32 40 C32 31 36 25 42 22"/>
    <path d="M42 22 C44 19 45 16 44 12"/>
    <path d="M42 22 C40 19 39 16 39 13"/>
  </g>
  <g fill="#ff9aa8">
    <circle cx="20" cy="17" r="2.4"/>
    <circle cx="44" cy="12" r="2.4"/>
    <circle cx="39" cy="13" r="2"/>
    <circle cx="28" cy="21" r="2"/>
  </g>
</svg>
