<svg xmlns="http://www.w3.org/2000/svg" viewBox="0 0 64 64" role="img" aria-label="Tokyo Night">
  <rect width="64" height="64" rx="14" fill="#24283b"/>
  <path d="M8 34c6-6 14-6 22 0s16 6 26-2" fill="none" stroke="#7aa2f7" stroke-width="3" stroke-linecap="round" opacity="0.4"/>
  <rect x="13" y="30" width="9" height="24" rx="1.5" fill="#7aa2f7"/>
  <rect x="27" y="19" width="9" height="35" rx="1.5" fill="#bb9af7"/>
  <rect x="41" y="25" width="9" height="29" rx="1.5" fill="#9ece6a"/>
  <rect x="15" y="35" width="2" height="2" fill="#24283b"/>
  <rect x="18" y="38" width="2" height="2" fill="#24283b"/>
  <rect x="15" y="44" width="2" height="2" fill="#24283b"/>
  <rect x="29" y="25" width="2" height="2" fill="#24283b"/>
  <rect x="32" y="29" width="2" height="2" fill="#24283b"/>
  <rect x="29" y="35" width="2" height="2" fill="#24283b"/>
  <rect x="43" y="31" width="2" height="2" fill="#24283b"/>
  <rect x="46" y="36" width="2" height="2" fill="#24283b"/>
  <circle cx="18.5" cy="21" r="2.4" fill="#7dcfff"/>
  <circle cx="31.5" cy="11" r="3" fill="#e0af68"/>
  <circle cx="45.5" cy="17" r="2.4" fill="#f7768e"/>
</svg>
