<svg xmlns="http://www.w3.org/2000/svg" viewBox="0 0 64 64">
  <rect width="64" height="64" rx="14" fill="#e23b2e"/>
  <g>
    <line x1="32" y1="32" x2="76.0" y2="32.0" stroke="#ffffff" stroke-width="2.2" stroke-opacity="0.85"/><line x1="32" y1="32" x2="74.5" y2="43.4" stroke="#ffffff" stroke-width="1.2" stroke-opacity="0.85"/><line x1="32" y1="32" x2="70.1" y2="54.0" stroke="#ffffff" stroke-width="2.2" stroke-opacity="0.85"/><line x1="32" y1="32" x2="63.1" y2="63.1" stroke="#ffffff" stroke-width="1.2" stroke-opacity="0.85"/><line x1="32" y1="32" x2="54.0" y2="70.1" stroke="#ffffff" stroke-width="2.2" stroke-opacity="0.85"/><line x1="32" y1="32" x2="43.4" y2="74.5" stroke="#ffffff" stroke-width="1.2" stroke-opacity="0.85"/><line x1="32" y1="32" x2="32.0" y2="76.0" stroke="#ffffff" stroke-width="2.2" stroke-opacity="0.85"/><line x1="32" y1="32" x2="20.6" y2="74.5" stroke="#ffffff" stroke-width="1.2" stroke-opacity="0.85"/><line x1="32" y1="32" x2="10.0" y2="70.1" stroke="#ffffff" stroke-width="2.2" stroke-opacity="0.85"/><line x1="32" y1="32" x2="0.9" y2="63.1" stroke="#ffffff" stroke-width="1.2" stroke-opacity="0.85"/><line x1="32" y1="32" x2="-6.1" y2="54.0" stroke="#ffffff" stroke-width="2.2" stroke-opacity="0.85"/><line x1="32" y1="32" x2="-10.5" y2="43.4" stroke="#ffffff" stroke-width="1.2" stroke-opacity="0.85"/><line x1="32" y1="32" x2="-12.0" y2="32.0" stroke="#ffffff" stroke-width="2.2" stroke-opacity="0.85"/><line x1="32" y1="32" x2="-10.5" y2="20.6" stroke="#ffffff" stroke-width="1.2" stroke-opacity="0.85"/><line x1="32" y1="32" x2="-6.1" y2="10.0" stroke="#ffffff" stroke-width="2.2" stroke-opacity="0.85"/><line x1="32" y1="32" x2="0.9" y2="0.9" stroke="#ffffff" stroke-width="1.2" stroke-opacity="0.85"/><line x1="32" y1="32" x2="10.0" y2="-6.1" stroke="#ffffff" stroke-width="2.2" stroke-opacity="0.85"/><line x1="32" y1="32" x2="20.6" y2="-10.5" stroke="#ffffff" stroke-width="1.2" stroke-opacity="0.85"/><line x1="32" y1="32" x2="32.0" y2="-12.0" stroke="#ffffff" stroke-width="2.2" stroke-opacity="0.85"/><line x1="32" y1="32" x2="43.4" y2="-10.5" stroke="#ffffff" stroke-width="1.2" stroke-opacity="0.85"/><line x1="32" y1="32" x2="54.0" y2="-6.1" stroke="#ffffff" stroke-width="2.2" stroke-opacity="0.85"/><line x1="32" y1="32" x2="63.1" y2="0.9" stroke="#ffffff" stroke-width="1.2" stroke-opacity="0.85"/><line x1="32" y1="32" x2="70.1" y2="10.0" stroke="#ffffff" stroke-width="2.2" stroke-opacity="0.85"/><line x1="32" y1="32" x2="74.5" y2="20.6" stroke="#ffffff" stroke-width="1.2" stroke-opacity="0.85"/>
  </g>
  <circle cx="32" cy="32" r="10" fill="#15161a"/>
  <circle cx="32" cy="32" r="10" fill="none" stroke="#ffffff" stroke-width="2"/>
</svg>